<svg version="1.1" width="32px" height="32px" viewBox="0 0 32 32" xmlns="http://www.w3.org/2000/svg">
	<g id="icon">
		<path fill="black" d="m3.361 9.058c0-0.326 0.204-0.49 0.61-0.49 0.04 0 0.097 1e-3 0.17 5e-3s0.127 5e-3 0.16 5e-3v-0.88c0-0.24 0.017-0.393 0.05-0.46 0.094-0.173 0.24-0.26 0.44-0.26 0.192 0 0.333 0.083 0.42 0.25 0.033 0.074 0.05 0.234 0.05 0.48v0.87h1.29c0.047 0 0.118-1e-3 0.215-5e-3s0.168-5e-3 0.215-5e-3c0.102 0 0.174 3e-3 0.222 0.01 0.133 0.02 0.235 0.079 0.31 0.175s0.11 0.202 0.11 0.315c0 0.12-0.047 0.23-0.142 0.33-0.093 0.1-0.257 0.15-0.488 0.15-0.048 0-0.119-1e-3 -0.217-5e-3 -0.097-4e-3 -0.168-5e-3 -0.215-5e-3h-1.3v2.43c0 0.04-2e-3 0.102-5e-3 0.185-4e-3 0.084-5e-3 0.148-5e-3 0.195 0 0.44 0.187 0.66 0.56 0.66h0.67c0.24 0 0.403-0.04 0.49-0.12 0.054-0.047 0.102-0.13 0.146-0.25 0.043-0.12 0.1-0.222 0.17-0.305 0.068-0.084 0.178-0.125 0.323-0.125 0.113 0 0.225 0.04 0.33 0.12 0.106 0.08 0.16 0.206 0.16 0.38 0 0.2-0.068 0.399-0.21 0.6-0.14 0.2-0.304 0.354-0.49 0.46-0.126 0.073-0.272 0.127-0.438 0.16-0.167 0.033-0.318 0.048-0.455 0.045s-0.278-5e-3 -0.425-5e-3c-0.301 0-0.555-0.023-0.762-0.07-0.206-0.046-0.396-0.149-0.568-0.31-0.142-0.127-0.245-0.283-0.315-0.47-0.068-0.187-0.108-0.347-0.12-0.48-0.01-0.133-0.015-0.323-0.015-0.57v-2.53c-0.033 0-0.089 2e-3 -0.165 5e-3 -0.077 3e-3 -0.135 5e-3 -0.175 5e-3 -0.233 0-0.393-0.052-0.477-0.155-0.082-0.103-0.124-0.215-0.124-0.335z"/>
		<path fill="black" d="m14.94 13.45c0 0.159-0.042 0.279-0.125 0.359s-0.165 0.127-0.245 0.141c-0.079 0.013-0.188 0.021-0.329 0.021h-1.881c-0.42 0-0.71-0.026-0.869-0.08-0.16-0.053-0.396-0.217-0.711-0.49-0.232-0.193-0.387-0.385-0.46-0.574-0.072-0.19-0.109-0.482-0.109-0.875v-0.86c0-0.061-1e-3 -0.152-5e-3 -0.275-3e-3 -0.123-5e-3 -0.218-5e-3 -0.285 0-0.367 0.049-0.646 0.146-0.84s0.265-0.394 0.505-0.6c0.213-0.187 0.408-0.32 0.585-0.4s0.405-0.12 0.686-0.12c0.047 0 0.116 1e-3 0.21 5e-3 0.094 3e-3 0.16 5e-3 0.2 5e-3 0.054 0 0.134-1e-3 0.239-5e-3 0.106-4e-3 0.188-5e-3 0.24-5e-3 0.267 0 0.479 0.03 0.64 0.09s0.373 0.204 0.641 0.43c0.167 0.146 0.289 0.267 0.365 0.36s0.146 0.233 0.204 0.42c0.061 0.187 0.091 0.423 0.091 0.71 0 0.086-2e-3 0.192-6e-3 0.315-3e-3 0.124-5e-3 0.266-5e-3 0.425 0 0.294-0.08 0.487-0.239 0.58-0.073 0.04-0.246 0.061-0.521 0.061h-3.011v0.22c0 0.113 0.014 0.202 0.04 0.265s0.069 0.119 0.131 0.165c0.06 0.047 0.136 0.11 0.229 0.19 0.073 0.066 0.125 0.11 0.155 0.13 0.03 0.021 0.08 0.04 0.149 0.06 0.069 0.021 0.158 0.03 0.266 0.03 0.046 0 0.113-1e-3 0.2-5e-3 0.086-3e-3 0.148-5e-3 0.188-5e-3h1.37c0.026 0 0.076-2e-3 0.15-5e-3 0.073-4e-3 0.13-5e-3 0.17-5e-3 0.474-3e-3 0.714 0.146 0.721 0.447zm-0.96-2.45v-0.55c0-0.133-9e-3 -0.23-0.024-0.295-0.017-0.064-0.053-0.12-0.104-0.17-0.054-0.05-0.127-0.115-0.22-0.195-0.034-0.033-0.07-0.065-0.11-0.095s-0.078-0.059-0.114-0.085c-0.036-0.027-0.089-0.047-0.155-0.06s-0.141-0.02-0.22-0.02c-0.04 0-0.096 1e-3 -0.165 5e-3 -0.07 4e-3 -0.121 5e-3 -0.155 5e-3 -0.053 0-0.143-3e-3 -0.266-0.01-0.122-7e-3 -0.215-0.01-0.274-0.01-0.166 0-0.288 0.017-0.364 0.05-0.077 0.033-0.195 0.124-0.354 0.27-0.055 0.046-0.1 0.085-0.136 0.115s-0.064 0.063-0.085 0.1-0.034 0.085-0.045 0.145c-0.01 0.06-0.016 0.145-0.016 0.25v0.55h2.807z"/>
		<path fill="black" d="m19.42 11.97c-0.033 0.047-0.153 0.193-0.36 0.44l-0.64 0.77c-0.04 0.054-0.108 0.144-0.205 0.271-0.097 0.126-0.168 0.218-0.215 0.274s-0.111 0.112-0.195 0.165c-0.083 0.054-0.168 0.08-0.255 0.08-0.133 0-0.248-0.048-0.345-0.146-0.098-0.097-0.146-0.212-0.146-0.346 0-0.08 0.023-0.161 0.07-0.245 0.047-0.083 0.101-0.156 0.16-0.22s0.12-0.128 0.18-0.195l1.21-1.46c0.066-0.066 0.102-0.113 0.102-0.14 6e-3 -0.026-0.027-0.076-0.102-0.15-0.06-0.06-0.427-0.503-1.1-1.33-0.101-0.1-0.195-0.208-0.285-0.325-0.09-0.116-0.135-0.231-0.135-0.345 0-0.133 0.05-0.249 0.148-0.345 0.102-0.097 0.214-0.145 0.341-0.145 0.146 0 0.283 0.068 0.409 0.205 0.127 0.137 0.247 0.289 0.36 0.455 0.525 0.653 0.863 1.06 1.01 1.22 0.047-0.067 0.164-0.21 0.351-0.43l0.631-0.76c0.105-0.16 0.229-0.315 0.364-0.465 0.137-0.15 0.278-0.225 0.426-0.225 0.126 0 0.239 0.048 0.34 0.145 0.1 0.097 0.149 0.212 0.149 0.345 0 0.106-0.042 0.215-0.125 0.325-0.084 0.11-0.169 0.212-0.256 0.305l-1.14 1.37c-7e-3 7e-3 -0.018 0.021-0.03 0.04-0.053 0.047-0.076 0.08-0.069 0.101 0 0.033 0.033 0.083 0.101 0.149 0.14 0.141 0.543 0.627 1.21 1.46 0.08 0.074 0.168 0.177 0.265 0.311 0.098 0.133 0.146 0.257 0.146 0.37 0 0.126-0.05 0.236-0.15 0.33-0.1 0.093-0.213 0.14-0.34 0.14-0.146 0-0.29-0.076-0.43-0.23-0.141-0.152-0.276-0.326-0.41-0.52l-0.66-0.8c-0.213-0.247-0.337-0.396-0.37-0.45h-0.01z"/>
		<path fill="black" d="m23.91 9.058c0-0.326 0.203-0.49 0.609-0.49 0.04 0 0.098 1e-3 0.17 5e-3 0.073 4e-3 0.127 5e-3 0.16 5e-3v-0.88c0-0.24 0.018-0.393 0.05-0.46 0.095-0.173 0.24-0.26 0.44-0.26 0.193 0 0.333 0.083 0.42 0.25 0.033 0.074 0.05 0.234 0.05 0.48v0.87h1.29c0.047 0 0.118-1e-3 0.215-5e-3 0.098-4e-3 0.168-5e-3 0.215-5e-3 0.102 0 0.175 3e-3 0.222 0.01 0.133 0.02 0.235 0.079 0.31 0.175s0.11 0.202 0.11 0.315c0 0.12-0.047 0.23-0.142 0.33-0.093 0.1-0.257 0.15-0.488 0.15-0.047 0-0.119-1e-3 -0.216-5e-3 -0.098-4e-3 -0.168-5e-3 -0.216-5e-3h-1.3v2.43c0 0.04-2e-3 0.102-5e-3 0.185-4e-3 0.084-5e-3 0.148-5e-3 0.195 0 0.44 0.187 0.66 0.56 0.66h0.67c0.24 0 0.403-0.04 0.49-0.12 0.055-0.047 0.103-0.13 0.146-0.25s0.1-0.222 0.17-0.305c0.068-0.084 0.178-0.125 0.324-0.125 0.112 0 0.224 0.04 0.329 0.12 0.106 0.08 0.16 0.206 0.16 0.38 0 0.2-0.068 0.399-0.21 0.6-0.14 0.2-0.304 0.354-0.489 0.46-0.127 0.073-0.273 0.127-0.439 0.16-0.167 0.033-0.318 0.048-0.455 0.045s-0.278-5e-3 -0.425-5e-3c-0.3 0-0.554-0.023-0.761-0.07-0.206-0.046-0.396-0.149-0.569-0.31-0.141-0.127-0.245-0.283-0.315-0.47-0.068-0.187-0.108-0.347-0.119-0.48s-0.016-0.323-0.016-0.57v-2.53c-0.033 0-0.089 2e-3 -0.165 5e-3 -0.077 3e-3 -0.135 5e-3 -0.175 5e-3 -0.233 0-0.392-0.052-0.476-0.155-0.082-0.103-0.124-0.215-0.124-0.335z"/>
		<text x="4.5965481" y="26.19738" fill="#000000" font-family="'Noto Sans'" font-size="9.6px" style="font-variant-caps:normal;font-variant-east-asian:normal;font-variant-ligatures:normal;font-variant-numeric:normal;line-height:1.25" xml:space="preserve"><tspan x="4.5965481" y="26.19738">Noto</tspan></text>
	</g>
</svg>
